<svg width="420" height="420" viewBox="0 0 420 420" fill="none" xmlns="http://www.w3.org/2000/svg">
<rect width="420" height="420" fill="black"/>
<path d="M104.795 203H86.205L85.875 202.67V197.83L86.205 197.5H104.795L105.125 197.83V202.67L104.795 203ZM88.625 224.67V219.83L88.955 219.5H104.795L105.125 219.83L105.455 219.5L105.125 219.17V214.33L105.455 214L105.125 213.67L104.795 214H88.955L88.625 213.67V208.83L88.955 208.5H104.795L105.125 208.83L105.455 208.5L105.125 208.17V203.33L105.455 203H110.295L110.625 203.33V224.67L110.295 225H88.955L88.625 224.67ZM88.625 214.33V219.17L88.295 219.5H83.455L83.125 219.17V214.33L83.455 214H88.295L88.625 214.33ZM111.526 197.5H132.866L133.196 197.83V202.67L132.866 203H117.026L116.696 202.67L116.366 203L116.696 203.33V224.67L116.366 225H111.526L111.196 224.67V197.83L111.526 197.5ZM133.526 203H138.366L138.696 203.33V224.67L138.366 225H133.526L133.196 224.67V203.33L133.526 203ZM150.323 186.5H155.713L156.043 186.83V192.22L155.713 192.55H150.323L149.993 192.22V186.83L150.323 186.5ZM139.598 197.5H155.438L155.768 197.83V219.17L155.438 219.5L155.768 219.83L156.098 219.5H160.938L161.268 219.83V224.67L160.938 225H150.598L150.268 224.67V203.33L150.598 203L150.268 202.67L149.938 203H139.598L139.268 202.67V197.83L139.598 197.5ZM161.598 214H166.438L166.768 214.33V219.17L166.438 219.5H161.598L161.268 219.17V214.33L161.598 214ZM184.169 197.5H189.009L189.339 197.83V202.67L189.009 203H184.169L183.839 202.67V197.83L184.169 197.5ZM167.669 197.5H178.009L178.339 197.83V202.67L178.009 203H173.169L172.839 202.67L172.509 203L172.839 203.33V224.67L172.509 225H167.669L167.339 224.67V197.83L167.669 197.5ZM189.669 203H194.509L194.839 203.33V224.67L194.509 225H189.669L189.339 224.67V203.33L189.669 203ZM178.669 203H183.509L183.839 203.33V213.67L183.509 214H178.669L178.339 213.67V203.33L178.669 203ZM201.241 197.5H217.081L217.411 197.83V202.67L217.081 203H201.241L200.911 202.67V197.83L201.241 197.5ZM217.741 203H222.581L222.911 203.33V219.17L222.581 219.5H217.741L217.411 219.17V203.33L217.741 203ZM195.741 203H200.581L200.911 203.33V219.17L200.581 219.5H195.741L195.411 219.17V203.33L195.741 203ZM206.466 208.225H211.856L212.186 208.555V213.945L211.856 214.275H206.466L206.136 213.945V208.555L206.466 208.225ZM201.241 219.5H217.081L217.411 219.83V224.67L217.081 225H201.241L200.911 224.67V219.83L201.241 219.5ZM229.312 192H234.152L234.482 192.33V197.17L234.152 197.5L234.482 197.83L234.812 197.5H247.902L248.232 197.83V202.67L247.902 203H234.812L234.482 202.67L234.152 203L234.482 203.33V219.17L234.152 219.5H229.312L228.982 219.17V203.33L229.312 203L228.982 202.67L228.652 203H223.812L223.482 202.67V197.83L223.812 197.5H228.652L228.982 197.83L229.312 197.5L228.982 197.17V192.33L229.312 192ZM245.812 214H250.652L250.982 214.33V219.17L250.652 219.5H245.812L245.482 219.17V214.33L245.812 214ZM234.812 219.5H245.152L245.482 219.83V224.67L245.152 225H234.812L234.482 224.67V219.83L234.812 219.5ZM262.609 186.5H267.999L268.329 186.83V192.22L267.999 192.55H262.609L262.279 192.22V186.83L262.609 186.5ZM251.884 197.5H267.724L268.054 197.83V219.17L267.724 219.5L268.054 219.83L268.384 219.5H273.224L273.554 219.83V224.67L273.224 225H262.884L262.554 224.67V203.33L262.884 203L262.554 202.67L262.224 203H251.884L251.554 202.67V197.83L251.884 197.5ZM273.884 214H278.724L279.054 214.33V219.17L278.724 219.5H273.884L273.554 219.17V214.33L273.884 214ZM285.455 197.5H301.295L301.625 197.83V202.67L301.295 203H285.455L285.125 202.67V197.83L285.455 197.5ZM301.955 203H306.795L307.125 203.33V219.17L306.795 219.5H301.955L301.625 219.17V203.33L301.955 203ZM279.955 203H284.795L285.125 203.33V219.17L284.795 219.5H279.955L279.625 219.17V203.33L279.955 203ZM290.68 208.225H296.07L296.4 208.555V213.945L296.07 214.275H290.68L290.35 213.945V208.555L290.68 208.225ZM285.455 219.5H301.295L301.625 219.83V224.67L301.295 225H285.455L285.125 224.67V219.83L285.455 219.5ZM308.027 197.5H329.367L329.697 197.83V202.67L329.367 203H313.527L313.197 202.67L312.867 203L313.197 203.33V224.67L312.867 225H308.027L307.697 224.67V197.83L308.027 197.5ZM330.027 203H334.867L335.197 203.33V224.67L334.867 225H330.027L329.697 224.67V203.33L330.027 203Z" fill="#FFADAD"/>
</svg>
