<svg width="420" height="420" viewBox="0 0 420 420" fill="none" xmlns="http://www.w3.org/2000/svg">
<rect width="420" height="420" fill="black"/>
<path d="M139.455 186.5H144.295L144.625 186.83V197.17L144.295 197.5L144.625 197.83L144.955 197.5H160.795L161.125 197.83V202.67L160.795 203H144.955L144.625 202.67L144.295 203L144.625 203.33V219.17L144.295 219.5L144.625 219.83L144.955 219.5H160.795L161.125 219.83V224.67L160.795 225H139.455L139.125 224.67V186.83L139.455 186.5ZM161.455 203H166.295L166.625 203.33V219.17L166.295 219.5H161.455L161.125 219.17V203.33L161.455 203ZM173.026 197.5H188.866L189.196 197.83V202.67L188.866 203H173.026L172.696 202.67V197.83L173.026 197.5ZM189.526 203H194.366L194.696 203.33V213.67L194.366 214H173.026L172.696 213.67L172.366 214L172.696 214.33V219.17L172.366 219.5H167.526L167.196 219.17V203.33L167.526 203H172.366L172.696 203.33V208.17L172.366 208.5L172.696 208.83L173.026 208.5H188.866L189.196 208.83L189.526 208.5L189.196 208.17V203.33L189.526 203ZM173.026 219.5H191.616L191.946 219.83V224.67L191.616 225H173.026L172.696 224.67V219.83L173.026 219.5ZM216.938 203H198.348L198.018 202.67V197.83L198.348 197.5H216.938L217.268 197.83V202.67L216.938 203ZM200.768 224.67V219.83L201.098 219.5H216.938L217.268 219.83L217.598 219.5L217.268 219.17V214.33L217.598 214L217.268 213.67L216.938 214H201.098L200.768 213.67V208.83L201.098 208.5H216.938L217.268 208.83L217.598 208.5L217.268 208.17V203.33L217.598 203H222.438L222.768 203.33V224.67L222.438 225H201.098L200.768 224.67ZM200.768 214.33V219.17L200.438 219.5H195.598L195.268 219.17V214.33L195.598 214H200.438L200.768 214.33ZM245.669 197.5H250.509L250.839 197.83V224.67L250.509 225H229.169L228.839 224.67V219.83L229.169 219.5H245.009L245.339 219.83L245.669 219.5L245.339 219.17V197.83L245.669 197.5ZM223.669 197.5H228.509L228.839 197.83V219.17L228.509 219.5H223.669L223.339 219.17V197.83L223.669 197.5ZM257.241 192H262.081L262.411 192.33V197.17L262.081 197.5L262.411 197.83L262.741 197.5H275.831L276.161 197.83V202.67L275.831 203H262.741L262.411 202.67L262.081 203L262.411 203.33V219.17L262.081 219.5H257.241L256.911 219.17V203.33L257.241 203L256.911 202.67L256.581 203H251.741L251.411 202.67V197.83L251.741 197.5H256.581L256.911 197.83L257.241 197.5L256.911 197.17V192.33L257.241 192ZM273.741 214H278.581L278.911 214.33V219.17L278.581 219.5H273.741L273.411 219.17V214.33L273.741 214ZM262.741 219.5H273.081L273.411 219.83V224.67L273.081 225H262.741L262.411 224.67V219.83L262.741 219.5Z" fill="#FFC6FF"/>
</svg>
